<svg xmlns="http://www.w3.org/2000/svg" width="256" height="256" viewBox="0 0 100 100"><rect width="100" height="100" rx="20" fill="#5c7bb4"></rect><path d="M42.20 37.92L42.20 37.92Q42.20 41.36 40.56 44.28Q38.92 47.20 35.08 48.80L35.08 48.80Q39.64 50.32 41.88 53.56Q44.12 56.80 44.12 60.88L44.12 60.88Q44.12 68.16 38.88 71.68Q33.64 75.20 23.96 75.20L23.96 75.20Q20.60 75.20 17.44 74.92Q14.28 74.64 11.40 73.84L11.40 73.84Q8.04 72.88 8.04 70.16L8.04 70.16L8.04 29.20Q8.04 26.88 10.68 26.16L10.68 26.16Q13.40 25.36 16.44 25.08Q19.48 24.80 23.08 24.80L23.08 24.80Q32.12 24.80 37.16 28.00Q42.20 31.20 42.20 37.92ZM25.32 51.68L14.44 51.68L14.44 68.96Q16.36 69.36 18.88 69.60Q21.40 69.84 23.96 69.84L23.96 69.84Q30.60 69.84 34.04 67.64Q37.48 65.44 37.48 60.72L37.48 60.72Q37.48 56.56 34.40 54.12Q31.32 51.68 25.32 51.68L25.32 51.68ZM14.44 30.88L14.44 46.40L25.32 46.40Q30.36 46.40 32.96 44.16Q35.56 41.92 35.56 38.08L35.56 38.08Q35.56 30.16 23.08 30.16L23.08 30.16Q20.28 30.16 18.24 30.36Q16.20 30.56 14.44 30.88L14.44 30.88ZM91.48 31.04L91.48 31.04Q91.48 32.16 90.80 32.96Q90.12 33.76 89.24 34.16L89.24 34.16Q87.16 32.72 84.36 31.44Q81.56 30.16 77.08 30.16L77.08 30.16Q73.40 30.16 70.28 31.44Q67.16 32.72 64.84 35.20Q62.52 37.68 61.20 41.44Q59.88 45.20 59.88 50.08L59.88 50.08Q59.88 55.04 61.16 58.72Q62.44 62.40 64.72 64.88Q67.00 67.36 70.20 68.60Q73.40 69.84 77.32 69.84L77.32 69.84Q81.48 69.84 84.56 68.68Q87.64 67.52 89.72 65.92L89.72 65.92Q90.52 66.24 91.24 67.08Q91.96 67.92 91.96 69.04L91.96 69.04Q91.96 70.72 90.04 72.08L90.04 72.08Q88.20 73.36 85.00 74.36Q81.80 75.36 76.84 75.36L76.84 75.36Q71.80 75.36 67.48 73.76Q63.16 72.16 60.00 69Q56.84 65.84 55.00 61.12Q53.16 56.40 53.16 50.08L53.16 50.08Q53.16 43.76 55.04 39.00Q56.92 34.24 60.12 31.04Q63.32 27.84 67.60 26.24Q71.88 24.64 76.60 24.64L76.60 24.64Q79.88 24.64 82.64 25.20Q85.40 25.76 87.36 26.68Q89.32 27.60 90.40 28.76Q91.48 29.92 91.48 31.04Z" fill="#fff"></path></svg>